<svg viewBox="0 0 32 32" fill="none" xmlns="http://www.w3.org/2000/svg">
  <!-- Price tag background -->
  <path
    d="M16 1.5C16.4142 1.5 16.75 1.83579 16.75 2.25V29.75C16.75 30.1642 16.4142 30.5 16 30.5C15.5858 30.5 15.25 30.1642 15.25 29.75V2.25C15.25 1.83579 15.5858 1.5 16 1.5Z"
    fill="#10b981"
  />
  <path
    d="M6.5 6.5C6.5 4.84315 7.84315 3.5 9.5 3.5H22.5C24.1569 3.5 25.5 4.84315 25.5 6.5V25.5C25.5 27.1569 24.1569 28.5 22.5 28.5H9.5C7.84315 28.5 6.5 27.1569 6.5 25.5V6.5Z"
    fill="#10b981"
  />
  
  <!-- Storefront silhouette (left half) -->
  <path
    d="M9.5 9.5H16V16H9.5V9.5Z"
    fill="white"
  />
  <path
    d="M9.5 9.5L12.75 6.5L16 9.5"
    fill="white"
  />
  <path
    d="M11 11H14.5V14.5H11V11Z"
    fill="#10b981"
  />
  
  <!-- Smartphone silhouette (right half) -->
  <path
    d="M16 9.5H22.5V16H16V9.5Z"
    fill="white"
  />
  <path
    d="M17.5 11H21V13H17.5V11Z"
    fill="#10b981"
  />
  <circle
    cx="19.25"
    cy="14.5"
    r="0.75"
    fill="#10b981"
  />
  
  <!-- Price tag hole and string -->
  <circle
    cx="16"
    cy="4.75"
    r="1.125"
    fill="white"
  />
  <path
    d="M16 3.625C16 3.625 17.5 2.375 19 3.625"
    stroke="#10b981"
    strokeWidth="1.125"
    strokeLinecap="round"
    fill="none"
  />
</svg>

